<?xml version="1.0" encoding="utf-8"?>
<!-- Generator: Adobe Illustrator 17.0.0, SVG Export Plug-In . SVG Version: 6.00 Build 0)  -->
<!DOCTYPE svg PUBLIC "-//W3C//DTD SVG 1.1//EN" "http://www.w3.org/Graphics/SVG/1.1/DTD/svg11.dtd">
<svg version="1.1"   xmlns="http://www.w3.org/2000/svg" xmlns:xlink="http://www.w3.org/1999/xlink">

 

<symbol id="icon-menu" viewBox="0 0 24 16">
	<g fill-rule="evenodd">
        <rect width="24" height="2.526" rx="1.191"/>
        <rect width="16.8" height="2.526" y="6.737" rx="1.191"/>
        <rect width="24" height="2.526" y="13.474" rx="1.191"/>
    </g>
</symbol>


<symbol id="icon-whatsapp" viewBox="0 0 1792 1792">
	<path d="M1113 974q13 0 97.5 44t89.5 53q2 5 2 15 0 33-17 76-16 39-71 65.5t-102 26.5q-57 0-190-62-98-45-170-118t-148-185q-72-107-71-194v-8q3-91 74-158 24-22 52-22 6 0 18 1.5t19 1.5q19 0 26.5 6.5t15.5 27.5q8 20 33 88t25 75q0 21-34.5 57.5t-34.5 46.5q0 7 5 15 34 73 102 137 56 53 151 101 12 7 22 7 15 0 54-48.5t52-48.5zm-203 530q127 0 243.5-50t200.5-134 134-200.5 50-243.5-50-243.5-134-200.5-200.5-134-243.5-50-243.5 50-200.5 134-134 200.5-50 243.5q0 203 120 368l-79 233 242-77q158 104 345 104zm0-1382q153 0 292.5 60t240.5 161 161 240.5 60 292.5-60 292.5-161 240.5-240.5 161-292.5 60q-195 0-365-94l-417 134 136-405q-108-178-108-389 0-153 60-292.5t161-240.5 240.5-161 292.5-60z"/>
</symbol> 


<symbol id="icon-facebook" viewBox="0 0 28 28">
	 <path fill="#4A90E2" fill-rule="nonzero" d="M25.2 0H2.8C1.26 0 0 1.26 0 2.8v22.4C0 26.74 1.26 28 2.8 28h22.4c1.54 0 2.8-1.26 2.8-2.8V2.8C28 1.26 26.74 0 25.2 0zm-1.4 2.8V7H21c-.84 0-1.4.56-1.4 1.4v2.8h4.2v4.2h-4.2v9.8h-4.2v-9.8h-2.8v-4.2h2.8V7.7c0-2.66 2.24-4.9 4.9-4.9h3.5z"/>
</symbol>
 

<symbol id="icon-linkedin" viewBox="0 0 28 28">
	<path fill="#2960A1" fill-rule="nonzero" d="M25.2 0H2.8C1.26 0 0 1.26 0 2.8v22.4C0 26.74 1.26 28 2.8 28h22.4c1.54 0 2.8-1.26 2.8-2.8V2.8C28 1.26 26.74 0 25.2 0zM8.4 23.8H4.2V11.2h4.2v12.6zM6.3 8.82A2.51 2.51 0 0 1 3.78 6.3c0-1.4 1.12-2.52 2.52-2.52S8.82 4.9 8.82 6.3 7.7 8.82 6.3 8.82zM23.8 23.8h-4.2v-7.42c0-1.12-.98-2.1-2.1-2.1s-2.1.98-2.1 2.1v7.42h-4.2V11.2h4.2v1.68c.7-1.12 2.24-1.96 3.5-1.96 2.66 0 4.9 2.24 4.9 4.9v7.98z"/>
</symbol> 

<symbol id="icon-instagram" viewBox="0 0 30 30">
	<path fill="#FF6F61" fill-rule="nonzero" d="M20.625 0C25.802 0 30 4.198 30 9.375v11.25C30 25.802 25.802 30 20.625 30H9.375C4.198 30 0 25.802 0 20.625V9.375C0 4.198 4.198 0 9.375 0h11.25zm6.563 20.625V9.375a6.57 6.57 0 0 0-6.563-6.563H9.375a6.57 6.57 0 0 0-6.563 6.563v11.25a6.57 6.57 0 0 0 6.563 6.563h11.25a6.57 6.57 0 0 0 6.563-6.563zM15 7.5a7.5 7.5 0 1 1 0 15 7.5 7.5 0 0 1 0-15zm0 12.188A4.694 4.694 0 0 0 19.688 15 4.693 4.693 0 0 0 15 10.312 4.693 4.693 0 0 0 10.312 15 4.694 4.694 0 0 0 15 19.688zm8.063-11.751a1 1 0 1 1 0-1.999 1 1 0 0 1 0 1.999z"/>
</symbol>

<symbol id="icon-passo1" viewBox="0 0 78 86">
	 <g fill="none" fill-rule="evenodd" stroke-width="10.08">
        <path stroke="#FF9A64" d="M30.594 80.651h21.131c11.645 0 21.13-9.5 21.13-21.17 0-11.669-9.485-21.169-21.13-21.169s-21.131 9.5-21.131 21.17v21.17z"/>
        <path stroke="#BBD557" d="M26.981 52.263H16.042c-6.025 0-10.938-4.92-10.938-10.962 0-6.041 4.913-10.961 10.938-10.961 6.026 0 10.939 4.92 10.939 10.961v10.962z" style="mix-blend-mode:multiply"/>
        <path stroke="#FAC600" d="M40.48 22.197h8.47c4.663 0 8.468-3.81 8.468-8.488 0-4.678-3.805-8.489-8.468-8.489-4.664 0-8.47 3.811-8.47 8.489v8.488z" style="mix-blend-mode:multiply"/>
    </g>
</symbol>

<symbol id="icon-passo2" viewBox="0 0 74 76">
	<g fill="none" fill-rule="evenodd" transform="translate(0 5)">
        <rect width="73.671" height="10.154" x=".025" y="2.356" fill="#FAC600" rx="5.04"/>
        <rect width="73.671" height="10.154" x=".025" y="27.743" fill="#FAC600" rx="5.04"/>
        <rect width="73.671" height="10.154" x=".025" y="53.131" fill="#FAC600" rx="5.04"/>
        <ellipse cx="20.132" cy="7.433" stroke="#FF9A64" stroke-linecap="round" stroke-linejoin="round" stroke-width="10.08" rx="7.333" ry="7.345" style="mix-blend-mode:multiply"/>
        <ellipse cx="53.764" cy="33.095" stroke="#BBD557" stroke-linecap="round" stroke-linejoin="round" stroke-width="10.08" rx="7.333" ry="7.345" style="mix-blend-mode:multiply"/>
        <ellipse cx="29.739" cy="58.207" stroke="#2BC5CD" stroke-linecap="round" stroke-linejoin="round" stroke-width="10.08" rx="7.333" ry="7.345" style="mix-blend-mode:multiply"/>
    </g>
</symbol>

<symbol id="icon-passo3" viewBox="0 0 89 74">
	<g fill="none" fill-rule="evenodd" stroke-width="10.08">
        <g stroke="#FAC600">
            <path d="M5.04 24.17v44.415h48.8c8.35 0 15.12-6.77 15.12-15.12V24.17H5.04z"/>
            <path d="M15.362 31.824L34.963 46.2a3.427 3.427 0 0 0 4.06-.003L58.625 31.76l-43.264.063z"/>
        </g>
        <path stroke="#BBD557" stroke-linecap="round" stroke-linejoin="round" d="M53 14.55L62.246 25 83 6" style="mix-blend-mode:multiply"/>
    </g>
</symbol>

<symbol id="icon-passo4" viewBox="0 0 48 83">
    <g fill="none" fill-rule="evenodd">
        <path fill="#FFF" d="M.538 48.182l12.917-13.236 25.52 18.529-.969 15.088-15.22 5.37L5.57 55.202z"/>
        <path fill="#F6BE00" d="M23.63 35.008H13.49V6.911c0-3.626-2.914-6.566-6.507-6.566C3.39.345.476 3.285.476 6.911v41.23L13.49 35.008v13.133h10.583c5.837 0 10.585 4.79 10.585 10.68S29.91 69.502 24.073 69.502c-5.835 0-10.583-4.791-10.583-10.68V48.14H.476v11.03h.01c.187 12.97 10.693 23.464 23.587 23.464 13.201 0 23.904-10.995 23.59-24.387-.304-13-11.146-23.24-24.033-23.24"/>
    </g>
</symbol>

<symbol id="icon-passo4-alt" viewBox="0 0 48 83">
	<g fill="none" fill-rule="evenodd">
        <path fill="#FD9A69" d="M.538 48.182l12.917-13.236 25.52 18.529-.969 15.088-15.22 5.37L5.57 55.202z"/>
        <path fill="#FFF" d="M23.63 35.008H13.49V6.911c0-3.626-2.914-6.566-6.507-6.566C3.39.345.476 3.285.476 6.911v41.23L13.49 35.008v13.133h10.583c5.837 0 10.585 4.79 10.585 10.68S29.91 69.502 24.073 69.502c-5.835 0-10.583-4.791-10.583-10.68V48.14H.476v11.03h.01c.187 12.97 10.693 23.464 23.587 23.464 13.201 0 23.904-10.995 23.59-24.387-.304-13-11.146-23.24-24.033-23.24"/>
    </g>
</symbol>

<symbol id="icon-seta-left" viewBox="0 0 8 15">
     <path fill="none" fill-rule="evenodd" stroke="#FFF" stroke-linecap="round" stroke-linejoin="round" stroke-width="2" d="M1.28 13.236L7 7.118 1.28 1"/>
</symbol> 

<symbol id="icon-seta-right" viewBox="0 0 8 15">
     <path fill="none" fill-rule="evenodd" stroke="#FFF" stroke-linecap="round" stroke-linejoin="round" stroke-width="2" d="M6.72 13.236L1 7.118 6.72 1"/>
</symbol> 

<symbol id="icon-cadeado" viewBox="0 0 14 18">
    <path fill="#00A7B5" fill-rule="nonzero" d="M13.007 7.27h-.355V5.627c0-3.036-2.438-5.573-5.486-5.627h-.332c-3.048.054-5.486 2.59-5.486 5.627v1.641H.993C.446 7.27 0 7.827 0 8.516v8.233C0 17.437.446 18 .993 18h12.014c.547 0 .993-.563.993-1.251V8.516c0-.69-.446-1.247-.993-1.247zm-4.848 4.694v2.36c0 .27-.248.5-.545.5H6.386c-.297 0-.545-.23-.545-.5v-2.36a1.344 1.344 0 0 1-.456-1.01c0-.75.635-1.393 1.444-1.422.085-.003.257-.003.342 0 .809.03 1.444.673 1.444 1.421 0 .395-.167.753-.456 1.01zm2.61-4.552H3.231V5.655C3.23 3.718 4.923 2.118 7 2.118s3.77 1.6 3.77 3.537v1.757z"/>
</symbol>

<symbol id="icon-alerta" viewBox="0 0 18 18">
    <g fill="none" fill-rule="evenodd">
        <circle cx="9" cy="9" r="9" fill="#FF6F61"/>
        <text fill="#FFF" font-family="MarkPro-Bold, Mark Pro" font-size="14" font-weight="bold">
            <tspan x="7.058" y="14">!</tspan>
        </text>
    </g>
</symbol>

<symbol id="icon-fechar" viewBox="0 0 14 14">
    <g fill="none" fill-rule="evenodd" stroke="#00A7B5" stroke-linecap="round" stroke-linejoin="round" stroke-width="2">
        <path d="M1.333 1.333l11.678 11.678M12.5 1.5L1 13"/>
    </g>
</symbol>

</svg>