<svg xmlns="http://www.w3.org/2000/svg" width="20" height="16.539" viewBox="0 0 20 16.539146"><title>icon_twitter</title><path d="M17.965 4.66c0 5.517-4.128 11.88-11.675 11.88-2.317 0-4.474-.693-6.29-1.877a8.144 8.144 0 0 0 6.075-1.729c-1.796-.034-3.311-1.241-3.833-2.9a4.044 4.044 0 0 0 1.853-.071C2.218 9.579.803 7.892.803 5.869v-.053c.554.313 1.187.5 1.86.523A4.193 4.193 0 0 1 .836 2.863c0-.765.202-1.482.555-2.099C3.416 3.29 6.44 4.953 9.85 5.127a4.273 4.273 0 0 1-.107-.952C9.743 1.87 11.581 0 13.847 0c1.18 0 2.246.507 2.995 1.319A8.127 8.127 0 0 0 19.447.305a4.176 4.176 0 0 1-1.803 2.31A8.096 8.096 0 0 0 20 1.958a8.416 8.416 0 0 1-2.047 2.161c.008.18.012.36.012.54z" fill="#f5f5f5" fill-rule="evenodd"/></svg>