<svg xmlns="http://www.w3.org/2000/svg" width="20" height="18.992" viewBox="0 0 20 18.991684"><title>icon_link</title><path d="M11.172 8.035a.412.412 0 0 1 .028-.04v.04zM20 18.992h-4.287v-6.857c0-1.723-.622-2.898-2.17-2.898-1.188 0-1.892.793-2.201 1.558-.114.274-.142.656-.142 1.038v7.159H6.914s.056-11.613 0-12.814H11.2v1.816c.57-.873 1.586-2.118 3.864-2.118 2.82 0 4.936 1.83 4.936 5.768zM2.399 4.427h-.03C.931 4.427 0 3.443 0 2.213 0 .956.959 0 2.425 0c1.468 0 2.37.956 2.397 2.213 0 1.231-.93 2.214-2.423 2.214zM.254 18.992h4.288V6.178H.254z" fill="#f5f5f5" fill-rule="evenodd"/></svg>