<svg width="24" height="24" viewBox="0 0 24 24" xmlns="http://www.w3.org/2000/svg"><title>icone-ajuda</title><g fill="#FFF" fill-rule="evenodd" opacity=".8"><path d="M12 22c5.523 0 10-4.477 10-10S17.523 2 12 2 2 6.477 2 12s4.477 10 10 10zm0 2C5.373 24 0 18.627 0 12S5.373 0 12 0s12 5.373 12 12-5.373 12-12 12z"/><path d="M15.678 5.905C16.559 6.508 17 7.379 17 8.519c0 1.153-.341 2.031-1.024 2.634-.682.603-1.594.964-2.733 1.084l-.14 1.868h-2.425l-.12-3.002c1.26-.132 2.161-.374 2.704-.725.544-.351.816-.839.816-1.461 0-.517-.176-.918-.527-1.203-.352-.285-.872-.428-1.56-.428-.69 0-1.25.196-1.68.587-.432.39-.673.944-.727 1.66L7 8.459c.172-1.06.693-1.902 1.56-2.525C9.43 5.311 10.633 5 12.17 5c1.458 0 2.628.302 3.509.905zm-2.535 9.91c.305.278.457.656.457 1.133s-.152.855-.457 1.134c-.305.278-.722.417-1.252.417s-.945-.14-1.243-.417c-.298-.279-.447-.657-.447-1.134 0-.477.149-.855.447-1.133.298-.278.713-.417 1.243-.417.53 0 .947.139 1.252.417z"/></g></svg>
